<!DOCTYPE svg PUBLIC "-//W3C//DTD SVG 1.1//EN" "http://www.w3.org/Graphics/SVG/1.1/DTD/svg11.dtd">

<!-- Uploaded to: SVG Repo, www.svgrepo.com, Transformed by: SVG Repo Mixer Tools -->
<svg fill="#000000" width="15px" height="14px" viewBox="0 0 24 24" id="up-down-arrow" data-name="Flat Color" xmlns="http://www.w3.org/2000/svg" class="icon flat-color">

<g id="SVGRepo_bgCarrier" stroke-width="0"/>

<g id="SVGRepo_tracerCarrier" stroke-linecap="round" stroke-linejoin="round"/>

<g id="SVGRepo_iconCarrier">

<path id="secondary"  d="M11.71,6.29l-3-3a1,1,0,0,0-1.42,0l-3,3A1,1,0,0,0,5.71,7.71L7,6.41V20a1,1,0,0,0,2,0V6.41l1.29,1.3a1,1,0,0,0,1.42,0A1,1,0,0,0,11.71,6.29Z" style="fill: #DCDEDF;"/>

<path id="primary" d="M19.71,16.29a1,1,0,0,0-1.42,0L17,17.59V4a1,1,0,0,0-2,0V17.59l-1.29-1.3a1,1,0,0,0-1.42,1.42l3,3a1,1,0,0,0,1.42,0l3-3A1,1,0,0,0,19.71,16.29Z" style="fill: #c01920;"/>

</g>

</svg>